<?xml version="1.0" encoding="UTF-8"?>
<svg version="1.1" xmlns="http://www.w3.org/2000/svg" width="1254" height="1254">
<path d="M0 0 C1.86011719 -0.02126953 1.86011719 -0.02126953 3.7578125 -0.04296875 C6.875 0.1875 6.875 0.1875 8.875 2.1875 C9.36039383 5.38789888 9.1910598 6.74203607 7.30078125 9.40625 C6.60339844 10.1590625 5.90601563 10.911875 5.1875 11.6875 C0.4182393 17.29540512 -1.86270654 23.24834985 -4.125 30.1875 C-3.08859375 29.76597656 -2.0521875 29.34445313 -0.984375 28.91015625 C0.38536091 28.35663284 1.75515568 27.80325506 3.125 27.25 C3.80691406 26.97220703 4.48882813 26.69441406 5.19140625 26.40820312 C11.05534507 24.04554816 15.54405664 23.01797809 21.875 22.9375 C23.091875 22.91171875 24.30875 22.8859375 25.5625 22.859375 C29.04960976 23.20479625 30.37553871 23.81301177 32.875 26.1875 C32.79048357 29.06105849 32.32977932 30.73048589 30.28515625 32.78515625 C29.0302403 33.8296364 27.75824699 34.85399466 26.46875 35.85546875 C24.74386375 37.11686016 24.74386375 37.11686016 23.875 39.1875 C24.85984375 39.15785156 25.8446875 39.12820312 26.859375 39.09765625 C55.82410297 39.16289212 88.95056046 55.18817535 112.6171875 70.76171875 C114.8984166 72.32817218 114.8984166 72.32817218 117.875 73.1875 C118.22884766 71.89972656 118.22884766 71.89972656 118.58984375 70.5859375 C120.0122201 66.82463834 121.96941429 63.93403989 124.4375 60.8125 C124.88512695 60.24378174 125.33275391 59.67506348 125.79394531 59.08911133 C138.01895666 43.88992319 155.10351353 34.99971326 174.39453125 32.44140625 C194.52845184 30.97260172 213.12439924 37.004237 228.60546875 50.109375 C243.05155445 63.33711612 251.82354379 81.20881306 253.11328125 100.80859375 C253.30920158 110.88302319 251.85046386 119.57446292 248.875 129.1875 C248.60945312 130.08984375 248.34390625 130.9921875 248.0703125 131.921875 C242.24538551 148.89737652 228.07375129 161.63352298 212.875 170.1875 C211.55091888 170.55587219 210.21850286 170.89786409 208.875 171.1875 C209.10574219 171.76790039 209.33648438 172.34830078 209.57421875 172.94628906 C227.30299197 217.91640849 234.67170006 263.8429913 238.31738281 311.76318359 C240.35687097 339.73387149 240.35687097 339.73387149 245.875 367.1875 C246.07738281 367.95626465 246.27976562 368.7250293 246.48828125 369.51708984 C252.47511491 391.71182722 264.60760444 411.10743641 277.36328125 429.97265625 C324.12865899 499.16906466 362.41040854 585.5385037 346.03125 670.67578125 C338.94879582 705.40014486 319.82585394 738.86675635 289.8203125 758.74609375 C275.75416797 767.62939943 260.25217033 775.81706483 243.64941406 778.55444336 C241.21206897 778.93037624 241.21206897 778.93037624 237.875 780.1875 C236.04613367 783.05716687 236.04613367 783.05716687 235.25 786.625 C231.89969326 797.74225134 226.52534316 806.49071433 218.875 815.1875 C218.20855469 815.94933594 217.54210937 816.71117187 216.85546875 817.49609375 C199.16246538 836.43647027 172.29270274 844.96612388 147.0390625 846.40625 C136.36758783 846.67471477 131.14368902 843.78077863 123.375 836.8125 C121.47246796 835.12904741 119.56879172 833.44703886 117.66015625 831.77050781 C116.50815128 830.74895418 115.36894489 829.71269409 114.24609375 828.65917969 C112.07882988 826.69284502 110.286489 825.30497347 107.453125 824.49609375 C103.31299409 825.60640159 100.71936699 828.37947751 97.625 831.25 C96.28619267 832.44517241 94.94635381 833.63919035 93.60546875 834.83203125 C92.96270996 835.41033691 92.31995117 835.98864258 91.65771484 836.58447266 C80.69763052 846.43984292 80.69763052 846.43984292 72.875 846.1875 C66.41706202 844.60347748 62.49398171 840.30926966 57.72265625 835.83984375 C55.03623314 833.33767463 52.31634621 830.91715011 49.5 828.5625 C48.72914063 827.91023437 47.95828125 827.25796875 47.1640625 826.5859375 C44.37050478 824.87929303 43.09150746 824.5700899 39.875 825.1875 C37.31853409 827.02718576 37.31853409 827.02718576 34.875 829.5625 C30.75925838 833.45606933 26.61429473 837.2119375 22.1875 840.75 C21.17300781 841.57628906 20.15851563 842.40257812 19.11328125 843.25390625 C14.97065394 845.7274895 12.7022411 846.1448649 7.875 846.1875 C2.99952112 844.44362594 -0.64799253 841.31261971 -4.5 837.9375 C-5.06654297 837.45240967 -5.63308594 836.96731934 -6.21679688 836.4675293 C-8.71196687 834.32408723 -11.16282032 832.15227756 -13.5703125 829.91015625 C-14.24835938 829.27980469 -14.92640625 828.64945313 -15.625 828 C-16.47578125 827.17435547 -16.47578125 827.17435547 -17.34375 826.33203125 C-19.91374721 824.68069532 -21.10811757 824.603306 -24.125 825.1875 C-26.59566392 826.80136416 -28.70955224 828.75271654 -30.875 830.75 C-32.11728702 831.85421899 -33.36077607 832.95708716 -34.60546875 834.05859375 C-35.20665527 834.59597168 -35.8078418 835.13334961 -36.42724609 835.68701172 C-38.62768265 837.63177488 -40.88508995 839.48991994 -43.1875 841.3125 C-43.83847656 841.83070313 -44.48945312 842.34890625 -45.16015625 842.8828125 C-49.21654793 845.57632109 -52.93353211 846.83300506 -57.83984375 846.03515625 C-63.06026686 844.09869161 -67.03891945 839.8601927 -71.125 836.1875 C-72.83829705 834.65732619 -74.55587552 833.13326381 -76.28637695 831.62255859 C-77.40892896 830.64154506 -78.52126943 829.64869329 -79.62182617 828.64306641 C-81.92979963 826.61974663 -83.69009786 825.28050618 -86.71875 824.6328125 C-89.9586801 825.3796795 -91.379752 826.80627913 -93.75 829.125 C-97.37734834 832.55203209 -101.03360868 835.87529658 -104.875 839.0625 C-105.73609375 839.78179688 -106.5971875 840.50109375 -107.484375 841.2421875 C-111.65117465 844.3118121 -114.77273695 846.16568931 -120 846.25 C-125.0943154 845.31157348 -128.28179006 842.50917579 -132.125 839.1875 C-133.29523297 838.18840376 -134.46583773 837.18974292 -135.63671875 836.19140625 C-137.52705223 834.57665503 -139.4135666 832.95831316 -141.28955078 831.3269043 C-141.87075684 830.82199463 -142.45196289 830.31708496 -143.05078125 829.796875 C-143.57067627 829.34280273 -144.09057129 828.88873047 -144.6262207 828.42089844 C-147.87328587 825.73809296 -147.87328587 825.73809296 -151.94921875 825.2421875 C-155.87022814 826.40932683 -158.12219905 828.48694634 -160.9375 831.3125 C-161.98464726 832.3162405 -163.03414413 833.31753534 -164.0859375 834.31640625 C-164.59866211 834.80641113 -165.11138672 835.29641602 -165.63964844 835.80126953 C-171.19679507 840.98757436 -176.67236887 846.03518651 -184.55078125 846.3046875 C-212.00668165 844.59386758 -238.17442504 834.58985548 -257.125 814.1875 C-265.20489844 804.92902991 -274.125 791.9365326 -274.125 779.1875 C-274.72183594 779.11273437 -275.31867188 779.03796875 -275.93359375 778.9609375 C-297.94516367 775.62486004 -319.35157316 764.60841256 -336.125 750.1875 C-337.01316406 749.44886719 -337.90132813 748.71023438 -338.81640625 747.94921875 C-366.39800712 724.2416748 -381.46431131 686.88607724 -384.8125 651.2578125 C-388.54696228 600.09992295 -375.92700285 549.55148115 -354.18505859 503.45166016 C-353.17964095 501.30420663 -352.20435907 499.14585078 -351.23828125 496.98046875 C-345.66272431 484.60846216 -338.94716574 472.90684576 -332.125 461.1875 C-331.64579102 460.35911621 -331.16658203 459.53073242 -330.67285156 458.67724609 C-324.29245946 447.68378997 -317.44065234 437.0394617 -310.4375 426.4375 C-285.77066826 389.05972932 -276.36721769 354.01193598 -272.97293091 309.34085083 C-271.29054646 287.43891431 -269.34459245 265.76368275 -265.125 244.1875 C-264.90231445 243.03523926 -264.67962891 241.88297852 -264.45019531 240.69580078 C-259.87872905 217.55799162 -254.2112907 192.22036928 -243.125 171.1875 C-243.929375 170.98125 -244.73375 170.775 -245.5625 170.5625 C-262.05648604 164.19640013 -274.25963012 149.09938647 -281.65234375 133.58984375 C-289.30683877 115.90532078 -289.27334575 95.95824207 -282.29541016 78.05957031 C-273.70351042 57.89538284 -259.13271838 44.64842259 -239.125 36.1875 C-222.35786735 29.59470907 -202.4681668 31.3152091 -186.125 38.1875 C-170.15409952 46.00001692 -159.19182776 58.19554163 -150.125 73.1875 C-149.11824219 72.57003906 -148.11148438 71.95257813 -147.07421875 71.31640625 C-122.0767925 56.17758659 -93.50276614 43.18092212 -64.16259766 39.85131836 C-59.15165053 39.2479525 -55.97894339 38.73191523 -52.671875 34.73828125 C-51.70710777 33.34749588 -50.77477319 31.93369033 -49.875 30.5 C-39.83274307 15.45056218 -26.47962394 6.16823545 -9.234375 0.57421875 C-6.14801146 0.00838543 -3.13478187 0.01636107 0 0 Z M-130.1875 187.8125 C-131.93257462 194.09476864 -132.58944051 201.2551892 -129.4375 207.1875 C-126.42004242 211.10203957 -123.8403415 213.6157195 -119.125 215.1875 C-113.43237162 215.75134129 -108.97555862 215.49469906 -104.125 212.1875 C-99.46446695 207.31512454 -97.08210548 203.4676698 -96.8125 196.75 C-96.96352328 191.6823301 -98.12540268 188.20127886 -101.77734375 184.5234375 C-106.51732764 180.2945301 -110.24420836 178.70418212 -116.640625 178.77734375 C-122.36085567 179.72172146 -126.68727589 183.35766932 -130.1875 187.8125 Z M60.125 185.0625 C56.37910202 190.26513608 54.92222335 194.73243817 55.875 201.1875 C57.79800756 207.10948918 60.87660283 210.60169334 65.875 214.1875 C69.63120345 216.06560173 73.78467425 215.70178072 77.875 215.1875 C82.58324912 213.47395355 85.85850375 210.8378764 88.375 206.5 C90.66946297 201.06089359 90.9057318 195.55764556 89.1796875 189.9140625 C87.07137739 185.14821864 84.55216032 182.67535123 79.875 180.1875 C71.98258061 177.55669354 65.84183405 179.08580986 60.125 185.0625 Z M-78.125 229.1875 C-79.135625 229.950625 -80.14625 230.71375 -81.1875 231.5 C-88.89845968 238.5547078 -94.89310287 247.18964793 -100.125 256.1875 C-100.63804687 257.0640625 -101.15109375 257.940625 -101.6796875 258.84375 C-113.0783088 279.86918618 -116.43178063 304.05744659 -109.81396484 327.05957031 C-104.06321817 344.82126698 -90.73845598 359.66663817 -74.484375 368.59375 C-44.94853697 382.60610106 -9.36570776 384.45906241 21.54321289 373.7253418 C42.57747177 365.8814587 57.77718709 351.9082604 67.4375 331.6484375 C75.70427937 311.7452676 74.04901056 289.5395553 66.1875 269.8125 C55.00529354 242.91371269 35.64556568 223.20802008 8.8671875 211.96533203 C4.30639102 210.18460929 -0.31441049 209.04337175 -5.125 208.1875 C-6.383125 207.960625 -7.64125 207.73375 -8.9375 207.5 C-34.84557986 204.9893201 -58.21692596 212.38565028 -78.125 229.1875 Z M-191.91621399 403.75567627 C-193.88935103 407.72521383 -193.51524026 411.72811815 -193.46557617 416.09667969 C-193.46601425 417.10188156 -193.46645233 418.10708344 -193.46690369 419.14274597 C-193.46481373 422.46515325 -193.44147242 425.78705587 -193.41796875 429.109375 C-193.41237354 431.41294072 -193.40810309 433.71651 -193.40510559 436.02008057 C-193.39365095 442.0831691 -193.36417818 448.14604205 -193.33099365 454.20904541 C-193.30030627 460.39584436 -193.28660309 466.58267813 -193.27148438 472.76953125 C-193.23930929 484.90894889 -193.18810525 497.04820652 -193.125 509.1875 C-193.94103699 509.04874451 -194.75707397 508.90998901 -195.59783936 508.76702881 C-196.67253479 508.58577454 -197.74723022 508.40452026 -198.85449219 508.21777344 C-199.91802917 508.03776794 -200.98156616 507.85776245 -202.07733154 507.67230225 C-231.45486642 502.999125 -260.90570757 511.2710724 -285.125 528.1875 C-289.68407681 531.60109925 -293.93610828 535.33394318 -298.125 539.1875 C-299.00929688 539.98929688 -299.89359375 540.79109375 -300.8046875 541.6171875 C-305.67823369 546.2478155 -309.85375849 551.21037784 -313.8125 556.625 C-314.25940186 557.22868408 -314.70630371 557.83236816 -315.16674805 558.4543457 C-316.54350922 560.35095914 -316.54350922 560.35095914 -318.125 563.1875 C-317.795 564.1775 -317.465 565.1675 -317.125 566.1875 C-316.59769287 565.81052979 -316.07038574 565.43355957 -315.52709961 565.04516602 C-305.21651921 557.69517115 -294.92201284 550.43959865 -283.89746094 544.19335938 C-282.71132276 543.52023413 -281.52966476 542.83915508 -280.35253906 542.15039062 C-256.11567975 527.99340869 -226.91257212 520.13986247 -199.09082031 526.66455078 C-185.37600784 530.29692257 -173.20218385 536.97641783 -165.78125 549.4453125 C-162.92773099 555.29502647 -161.01540207 561.85870622 -163.125 568.1875 C-163.95692871 568.17178955 -163.95692871 568.17178955 -164.80566406 568.15576172 C-167.32872959 568.11407996 -169.85172253 568.08813562 -172.375 568.0625 C-173.24769531 568.04574219 -174.12039063 568.02898437 -175.01953125 568.01171875 C-176.28603516 568.00205078 -176.28603516 568.00205078 -177.578125 567.9921875 C-178.74069824 567.97647705 -178.74069824 567.97647705 -179.92675781 567.96044922 C-182.38383539 568.21423444 -183.99811542 568.96305848 -186.125 570.1875 C-183.96033059 572.35216941 -183.08645401 572.62663066 -180.203125 573.3359375 C-179.42453125 573.53703125 -178.6459375 573.738125 -177.84375 573.9453125 C-176.21445664 574.35263584 -174.58425851 574.7563592 -172.953125 575.15625 C-166.59828572 576.80767205 -161.88795527 578.85277546 -157.8125 584.25 C-154.03167544 590.83143535 -154.35725147 598.76903663 -155.125 606.1875 C-156.15216431 609.79658187 -157.41691831 613.47941831 -160.125 616.1875 C-161.81005122 616.25034005 -163.49767547 616.24687577 -165.18359375 616.21484375 C-166.20904297 616.20259766 -167.23449219 616.19035156 -168.29101562 616.17773438 C-170.46816654 616.14264 -172.64525738 616.10359138 -174.82226562 616.06054688 C-176.36237305 616.04411133 -176.36237305 616.04411133 -177.93359375 616.02734375 C-179.35369751 616.00208618 -179.35369751 616.00208618 -180.80249023 615.97631836 C-183.31962817 615.95534828 -183.31962817 615.95534828 -185.125 618.1875 C-180.05614731 620.44032342 -174.94977996 622.30415605 -169.67578125 624.02734375 C-166.15712037 625.62771478 -163.85763456 627.72223087 -162.125 631.1875 C-161.01212807 639.772512 -164.71108503 646.6975438 -169.84765625 653.453125 C-177.14651813 661.3253582 -187.03171396 666.0703574 -196.36206055 671.10742188 C-205.64106332 676.12471563 -214.32298496 681.54691333 -222.921875 687.64404297 C-227.25805675 690.68186888 -231.66179622 693.61930993 -236.0625 696.5625 C-237.35885376 697.43708862 -237.35885376 697.43708862 -238.68139648 698.3293457 C-244.02288727 701.90114917 -249.45435664 705.16487135 -255.125 708.1875 C-255.125 708.8475 -255.125 709.5075 -255.125 710.1875 C-235.06431481 709.71089625 -217.57248121 700.39884249 -200.90771484 690.06933594 C-198.32160965 688.46790438 -196.02441735 687.15397245 -193.125 686.1875 C-193.13053076 687.26287034 -193.13053076 687.26287034 -193.13617325 688.35996532 C-193.22450631 705.80315076 -193.29070081 723.24627939 -193.33224869 740.68963909 C-193.35287494 749.1251243 -193.38099664 757.56046022 -193.42675781 765.99584961 C-193.46662377 773.34804869 -193.49243236 780.70013965 -193.50135398 788.0524438 C-193.50656918 791.94557218 -193.51882776 795.83839126 -193.54792023 799.73142052 C-193.57508577 803.3963153 -193.58344286 807.0607736 -193.57743073 810.72575951 C-193.57905455 812.7108352 -193.60057144 814.69586342 -193.62268066 816.68081665 C-193.61718201 817.86567154 -193.61168335 819.05052643 -193.60601807 820.27128601 C-193.61154882 821.81298478 -193.61154882 821.81298478 -193.61719131 823.38582897 C-192.99021623 826.95472152 -191.60730627 828.59266658 -189.125 831.1875 C-185.58951278 833.54449148 -184.28979676 833.76195472 -180.125 833.1875 C-177.95302513 831.57335474 -176.24337617 830.09548287 -174.375 828.1875 C-173.33179933 827.17723216 -172.28618953 826.1694465 -171.23828125 825.1640625 C-170.71959473 824.66165039 -170.2009082 824.15923828 -169.66650391 823.64160156 C-163.15956409 817.50360132 -157.72416563 812.60861113 -148.5 812.80078125 C-144.05716272 813.52420377 -141.40515031 816.2622512 -138.125 819.1875 C-136.95770173 820.18980186 -135.78824245 821.1895899 -134.6171875 822.1875 C-132.72514835 823.80054561 -130.83656373 825.41657943 -128.96020508 827.04785156 C-128.37907959 827.5528418 -127.7979541 828.05783203 -127.19921875 828.578125 C-126.67932373 829.03219727 -126.15942871 829.48626953 -125.6237793 829.95410156 C-123.46720587 831.72882203 -121.63992155 833.07026742 -118.89453125 833.6953125 C-114.51733578 832.89272377 -112.0065191 830.02909114 -108.8125 827.0625 C-107.48082712 825.8653379 -106.14750962 824.67000251 -104.8125 823.4765625 C-104.17699219 822.90454102 -103.54148437 822.33251953 -102.88671875 821.74316406 C-97.13135666 816.66096239 -92.46760379 812.65517362 -84.61328125 812.79296875 C-76.64855701 814.05582142 -70.31450057 821.55349508 -64.703125 826.8203125 C-63.85234375 827.60148437 -63.0015625 828.38265625 -62.125 829.1875 C-61.31546875 829.94804688 -60.5059375 830.70859375 -59.671875 831.4921875 C-56.46532732 833.62660728 -54.90866429 833.85000931 -51.125 833.1875 C-48.40587593 831.33936612 -48.40587593 831.33936612 -45.9375 828.75 C-44.99519531 827.84507812 -44.05289062 826.94015625 -43.08203125 826.0078125 C-42.59814941 825.54020508 -42.11426758 825.07259766 -41.61572266 824.59082031 C-39.206306 822.32266982 -36.67929727 820.22933497 -34.125 818.125 C-33.238125 817.39152344 -32.35125 816.65804688 -31.4375 815.90234375 C-28.28114642 813.56173696 -25.65290502 813.00102365 -21.8125 812.875 C-21.07386719 812.83761719 -20.33523438 812.80023437 -19.57421875 812.76171875 C-13.4825814 813.82071153 -8.59886265 819.21633963 -4.0625 823.1875 C-2.29035615 824.72882641 -0.51676615 826.26797417 1.26611328 827.796875 C2.69431467 829.03132646 4.09719259 830.29494127 5.49609375 831.5625 C7.74995571 833.31313228 7.74995571 833.31313228 10.30078125 833.75 C14.03415454 832.93420978 16.31944054 830.69790206 19.0625 828.1875 C20.20737367 827.17859746 21.3532181 826.1707955 22.5 825.1640625 C23.06589844 824.66165039 23.63179687 824.15923828 24.21484375 823.64160156 C26.60858989 821.54496157 29.07725051 819.54925468 31.5625 817.5625 C32.35011719 816.93085937 33.13773438 816.29921875 33.94921875 815.6484375 C37.62707674 812.85833833 40.63370359 812.65662189 45.17578125 812.734375 C50.19895556 813.57762858 53.22294928 816.8258264 56.875 820.1875 C58.62448179 821.77689849 60.38107334 823.35664236 62.15136719 824.92285156 C63.36089324 825.99564303 64.55757728 827.08313505 65.73925781 828.18652344 C68.57163445 830.71734194 70.71247553 832.12978274 74.33984375 833.41796875 C79.47626274 833.08310829 81.71603526 830.60320574 85.3125 827.125 C86.62599502 825.91881825 87.94108357 824.71436936 89.2578125 823.51171875 C90.19222168 822.64426025 90.19222168 822.64426025 91.14550781 821.75927734 C96.81234524 816.60920685 101.57363742 812.64750581 109.390625 812.796875 C117.06852955 814.0040927 123.09127055 820.99851168 128.45043945 826.2277832 C132.02696535 829.65800499 135.41184306 832.09328931 139.875 834.1875 C144.48824108 832.46730841 147.28856951 830.49060545 150.01288605 826.29113388 C152.00130303 821.43922152 151.38709398 815.90090198 151.32910156 810.74658203 C151.32797231 809.37625665 151.32860846 808.00592884 151.33087158 806.63560486 C151.33201665 802.92718713 151.30854159 799.21928963 151.28057575 795.51099253 C151.25552717 791.63128725 151.25321738 787.75156932 151.24847412 783.87179565 C151.23605445 776.53015075 151.20324666 769.18874483 151.16307616 761.84720504 C151.11832691 753.4869202 151.09636351 745.12662379 151.07629442 736.76624894 C151.03451301 719.57319452 150.96418076 702.38037255 150.875 685.1875 C153.44488287 686.63246414 156.01469732 688.07754972 158.58447266 689.52270508 C159.67073692 690.13345257 159.67073692 690.13345257 160.77894592 690.75653839 C164.3640544 692.77280279 167.94656091 694.79337361 171.5234375 696.82421875 C184.45291057 704.01394124 198.84514523 710.48220303 213.875 710.1875 C210.16280272 706.17125608 206.37932441 703.45759581 201.6875 700.6875 C195.57875258 696.98889127 189.79290264 693.00848802 184.0625 688.75 C172.96081166 680.56157188 161.07543181 673.89620271 148.875 667.5 C137.18785213 661.26189178 126.75939016 653.90202077 121.875 641.1875 C120.38787614 635.53642933 121.03019316 632.28853296 123.875 627.1875 C127.22916976 624.01788982 131.23938543 622.92892704 135.5625 621.625 C138.038425 620.87689544 140.44216368 620.07670314 142.875 619.1875 C143.205 618.5275 143.535 617.8675 143.875 617.1875 C141.31776771 615.90888385 139.50762898 616.07413391 136.6484375 616.08984375 C135.6171875 616.09306641 134.5859375 616.09628906 133.5234375 616.09960938 C132.44320313 616.10798828 131.36296875 616.11636719 130.25 616.125 C129.16203125 616.12951172 128.0740625 616.13402344 126.953125 616.13867188 C124.26036211 616.15048224 121.56770812 616.16695222 118.875 616.1875 C118.2240741 614.94014433 117.57948331 613.68948168 116.9375 612.4375 C116.57785156 611.74140625 116.21820312 611.0453125 115.84765625 610.328125 C112.74641159 603.50289579 112.95770931 595.41170928 115.0625 588.3125 C117.22587814 582.71961919 120.53874928 579.67198524 125.875 577.0625 C131.65960171 574.65469624 137.7548552 573.43612305 143.875 572.1875 C143.875 571.1975 143.875 570.2075 143.875 569.1875 C140.5616459 568.08304863 138.04804805 568.05445952 134.5625 568.0625 C133.45261719 568.05992187 132.34273437 568.05734375 131.19921875 568.0546875 C128.00698875 568.18222665 125.00991173 568.58992227 121.875 569.1875 C120.87166701 558.70824437 123.20716743 551.25568234 129.6328125 542.90234375 C141.51279728 530.00336446 158.86548298 525.03191545 175.875 524.1875 C209.34177247 523.88928124 239.07606089 539.79320164 265.578125 558.84765625 C266.17496094 559.27224121 266.77179687 559.69682617 267.38671875 560.13427734 C269.02114658 561.30087316 270.64381889 562.48388891 272.265625 563.66796875 C273.12671875 564.16941406 273.9878125 564.67085937 274.875 565.1875 C275.865 564.8575 276.855 564.5275 277.875 564.1875 C260.16886018 537.08180447 234.6070898 516.58458977 202.7109375 508.93359375 C187.37441924 505.95062533 172.41028877 505.12638211 157.1027832 508.72387695 C155.935522 508.99706253 154.7682608 509.27024811 153.56562805 509.55171204 C152.67772079 509.76152206 151.78981354 509.97133209 150.875 510.1875 C150.88388245 508.9229599 150.89276489 507.6584198 150.9019165 506.3555603 C150.98300971 494.43740176 151.04296913 482.51929921 151.08224869 470.60092735 C151.10312162 464.47358067 151.13143453 458.34645676 151.17675781 452.21923828 C151.2202251 446.30591264 151.24413932 440.39280124 151.25450897 434.47932816 C151.26189868 432.22347262 151.27632899 429.96762878 151.29792023 427.71186447 C151.32696516 424.55162992 151.33095544 421.39228019 151.32910156 418.23193359 C151.35067322 416.83362808 151.35067322 416.83362808 151.37268066 415.40707397 C151.33730563 409.83259055 150.67031934 406.56042234 146.875 402.1875 C143.67287603 399.25821898 141.57845529 398.81208953 137.27427769 398.80997658 C135.55312601 398.79824171 135.55312601 398.79824171 133.7972036 398.78626978 C132.53603452 398.79296195 131.27486545 398.79965411 129.97547913 398.80654907 C128.622652 398.80309315 127.26982769 398.79832902 125.91700929 398.79236734 C122.19590716 398.77981841 118.47503519 398.7860453 114.75393212 398.79532599 C110.742265 398.80210034 106.73063807 398.79164325 102.71897888 398.78338623 C94.85842582 398.77002904 86.99795858 398.77293556 79.13740212 398.78162415 C72.74975604 398.78839298 66.36213404 398.78932089 59.9744854 398.7860527 C58.61198603 398.78536316 58.61198603 398.78536316 57.22196142 398.78465968 C55.3768202 398.78370052 53.531679 398.78272788 51.68653779 398.7817419 C34.37418031 398.77318207 17.06187044 398.78303119 -0.25047923 398.799143 C-15.11061353 398.81254446 -29.97067752 398.81022066 -44.83081055 398.79638672 C-62.07869534 398.78033748 -79.32653836 398.77400848 -96.57442957 398.78322351 C-98.41317625 398.78417918 -100.25192294 398.78512229 -102.09066963 398.7860527 C-102.99541429 398.78651553 -103.90015894 398.78697836 -104.83232011 398.78745521 C-111.21300628 398.79004724 -117.59366599 398.78566947 -123.97434807 398.77861404 C-131.74934496 398.77020604 -139.52425097 398.77246434 -147.29923742 398.78845628 C-151.26743267 398.79634879 -155.23547632 398.79941401 -159.2036705 398.78950882 C-162.8350254 398.78058144 -166.46608792 398.78546219 -170.09741623 398.80144148 C-172.03609783 398.80638981 -173.97479967 398.79657516 -175.9134602 398.78626978 C-177.06350239 398.79409303 -178.21354459 398.80191627 -179.39843655 398.80997658 C-180.3907558 398.81046363 -181.38307505 398.81095069 -182.40546459 398.81145251 C-186.35694417 399.35784877 -188.95716755 401.16508328 -191.91621399 403.75567627 Z " fill="#000000" transform="translate(652.125,176.8125)"/>
<path d="M0 0 C5.37830949 4.94684063 8.87816255 9.67983413 9.5 17.0625 C9.30766707 24.742995 5.03795883 32.16499758 -0.0625 37.75 C-6.66912349 43.76674639 -15.02440306 48.11414525 -23 52 C-23.14553599 55.89543877 -23.23415059 59.79017651 -23.3125 63.6875 C-23.35439453 64.79029297 -23.39628906 65.89308594 -23.43945312 67.02929688 C-23.62825713 73.55809107 -23.62825713 73.55809107 -20.65234375 79.18359375 C-15.55050202 82.67749125 -11.33533027 83.485334 -5.296875 82.59375 C0.8026995 81.01698924 4.73738007 77.49587202 8.625 72.6875 C11.60873808 69.09206163 11.60873808 69.09206163 15.1875 68.25 C18.6551416 69.17470443 20.0215118 69.99269793 22 73 C22.36930858 78.293423 19.37319717 81.9007337 16.1640625 85.81640625 C9.77059278 92.26757877 1.38466378 96.17933976 -7.70996094 96.37939453 C-8.71978027 96.37721924 -8.71978027 96.37721924 -9.75 96.375 C-10.45157227 96.37483887 -11.15314453 96.37467773 -11.87597656 96.37451172 C-18.67878598 96.22594462 -24.26102925 94.36946402 -30.015625 90.72265625 C-32.01798436 89.73627676 -32.01798436 89.73627676 -34 90.86328125 C-34.66 91.34152344 -35.32 91.81976563 -36 92.3125 C-43.34060175 97.54554617 -53.01410064 96.95528994 -61.66796875 95.57421875 C-69.49882002 93.31505281 -76.46681371 87.7091157 -81 81 C-81.6496875 80.0409375 -81.6496875 80.0409375 -82.3125 79.0625 C-83.2987706 76.1036882 -82.77703875 73.97864853 -82 71 C-80 69 -80 69 -76.75 68.375 C-73 69 -73 69 -71.41796875 70.6484375 C-70.41417598 72.07334649 -69.42894829 73.5114822 -68.4609375 74.9609375 C-64.91919738 79.90422183 -59.8042716 81.89918987 -54 83 C-49.06761343 83 -44.90616952 82.12493562 -41 79 C-37.02782591 74.2429626 -37.62257132 69.18616566 -37.75 63.3125 C-37.75773438 61.86907227 -37.75773438 61.86907227 -37.765625 60.39648438 C-37.64158724 55.53788466 -37.64158724 55.53788466 -39 51 C-41.12363335 49.93375294 -43.2748536 48.92221413 -45.4375 47.9375 C-55.67611679 43.02453108 -63.52354552 36.06374292 -69 26 C-70.85790459 20.42628622 -70.75831067 14.31953851 -68.9375 8.75 C-62.0907934 -0.96790614 -53.58367832 -5.13451341 -41.9375 -7.3125 C-27.94837086 -9.19704589 -11.91007528 -8.39315088 0 0 Z " fill="#000000" transform="translate(662,420)"/>
<path d="M0 0 C1.10641846 -0.00451172 2.21283691 -0.00902344 3.3527832 -0.01367188 C4.57030273 -0.01882813 5.78782227 -0.02398438 7.04223633 -0.02929688 C8.95359375 -0.00609375 8.95359375 -0.00609375 10.90356445 0.01757812 C12.1584668 0.00210938 13.41336914 -0.01335938 14.70629883 -0.02929688 C23.29747318 0.00689554 29.02450638 0.86339929 35.65356445 6.64257812 C37.92899113 10.82936322 38.4214785 14.77783929 38.21606445 19.51757812 C36.79345224 23.35863111 34.780962 26.34199068 32.21606445 29.51757812 C32.81418945 29.78570313 33.41231445 30.05382812 34.02856445 30.33007812 C37.52694983 32.22920161 38.94951899 33.71794174 40.21606445 37.51757812 C40.94734398 44.37482218 40.42189572 48.98358962 36.21606445 54.51757812 C28.63767221 60.89031706 19.8914398 60.83961921 10.46606445 60.76757812 C9.43868164 60.7753125 8.41129883 60.78304687 7.3527832 60.79101562 C6.36407227 60.7884375 5.37536133 60.78585937 4.35668945 60.78320312 C3.46498047 60.78094727 2.57327148 60.77869141 1.65454102 60.77636719 C-0.95801823 60.49910319 -2.57562706 59.92331572 -4.78393555 58.51757812 C-6.02428071 56.03688781 -5.92418301 54.35569932 -5.94506836 51.58056641 C-5.9546759 50.55254913 -5.96428345 49.52453186 -5.97418213 48.46536255 C-5.97843201 47.35079681 -5.98268188 46.23623108 -5.98706055 45.08789062 C-5.99276062 43.94601288 -5.99846069 42.80413513 -6.0043335 41.62765503 C-6.01379248 39.20832244 -6.02032103 36.78897692 -6.02416992 34.36962891 C-6.03387729 30.66481092 -6.06489371 26.9605471 -6.09643555 23.25585938 C-6.10296521 20.90820643 -6.10821582 18.5605495 -6.11206055 16.21289062 C-6.12440735 15.10237335 -6.13675415 13.99185608 -6.1494751 12.84768677 C-6.146474 11.81336517 -6.1434729 10.77904358 -6.14038086 9.71337891 C-6.14402649 8.80451935 -6.14767212 7.89565979 -6.15142822 6.95925903 C-5.53599815 2.87024186 -4.09986082 0.76222967 0 0 Z M8.21606445 11.51757812 C8.18919892 13.4966721 8.1697307 15.47586783 8.15356445 17.45507812 C8.14196289 18.55722656 8.13036133 19.659375 8.1184082 20.79492188 C7.90343874 23.43205446 7.90343874 23.43205446 9.21606445 24.51757812 C14.97128251 25.14762305 19.19517486 24.60735633 24.21606445 21.51757812 C24.38283728 18.10101789 24.38283728 18.10101789 24.21606445 14.51757812 C21.48175785 11.78327152 19.4461289 11.56417148 15.63793945 11.41992188 C14.31536133 11.43732422 14.31536133 11.43732422 12.96606445 11.45507812 C11.62801758 11.46861328 11.62801758 11.46861328 10.26293945 11.48242188 C9.5874707 11.49402344 8.91200195 11.505625 8.21606445 11.51757812 Z M8.21606445 34.51757812 C8.21606445 38.80757812 8.21606445 43.09757813 8.21606445 47.51757812 C9.92793945 47.72382812 11.63981445 47.93007813 13.40356445 48.14257812 C14.36649414 48.25859375 15.32942383 48.37460937 16.3215332 48.49414062 C19.50299006 48.51990141 21.39542759 47.9498186 24.21606445 46.51757812 C26.62728304 44.56123837 26.62728304 44.56123837 26.34106445 40.89257812 C26.29981445 39.77882813 26.25856445 38.66507813 26.21606445 37.51757812 C20.40796558 33.64551221 15.07679788 34.28888701 8.21606445 34.51757812 Z " fill="#000000" transform="translate(551.783935546875,623.482421875)"/>
<path d="M0 0 C2.21139481 3.31709221 2.25929042 4.38371896 2.29052734 8.25 C2.3096669 9.85681641 2.3096669 9.85681641 2.32919312 11.49609375 C2.33141876 12.65238281 2.33364441 13.80867187 2.3359375 15 C2.3425943 16.18722656 2.3492511 17.37445312 2.35610962 18.59765625 C2.36624078 21.10935922 2.3709265 23.62108912 2.37060547 26.1328125 C2.37498275 29.98482302 2.41131113 33.83569199 2.44921875 37.6875 C2.45508582 40.12499607 2.45905595 42.5624976 2.4609375 45 C2.47530853 46.15628906 2.48967957 47.31257812 2.50448608 48.50390625 C2.49833282 49.57511719 2.49217957 50.64632812 2.48583984 51.75 C2.48868988 52.69359375 2.49153992 53.6371875 2.49447632 54.609375 C2 57 2 57 0.19619751 58.83984375 C-3.10124512 60.58174021 -5.46380423 59.85130639 -9 59 C-11.57059626 56.42940374 -11.2572575 55.43557593 -11.2746582 51.86352539 C-11.28419022 50.79223892 -11.29372223 49.72095245 -11.30354309 48.61720276 C-11.30263168 47.45575241 -11.30172028 46.29430206 -11.30078125 45.09765625 C-11.30506638 43.90901474 -11.3093515 42.72037323 -11.31376648 41.49571228 C-11.31951819 38.97802366 -11.32000389 36.46031842 -11.31567383 33.94262695 C-11.31251587 30.0819066 -11.33595682 26.22195352 -11.36132812 22.36132812 C-11.36360115 19.9192718 -11.3643046 17.47721341 -11.36328125 15.03515625 C-11.372491 13.87573013 -11.38170074 12.71630402 -11.39118958 11.52174377 C-11.38496078 10.44730515 -11.37873199 9.37286652 -11.37231445 8.26586914 C-11.37294388 7.31925919 -11.3735733 6.37264923 -11.3742218 5.39735413 C-10.35606673 -1.1251901 -5.368762 -0.51131067 0 0 Z " fill="#000000" transform="translate(617,624)"/>
<path d="M0 0 C1.0209375 0.02900391 1.0209375 0.02900391 2.0625 0.05859375 C3.0834375 0.06052734 3.0834375 0.06052734 4.125 0.0625 C6.64500023 0.62645166 7.45608418 1.49221856 9.0625 3.49609375 C9.42326355 5.52726746 9.42326355 5.52726746 9.40307617 7.87573242 C9.40284958 8.75641891 9.40262299 9.63710541 9.40238953 10.54447937 C9.38690567 11.4914418 9.37142181 12.43840424 9.35546875 13.4140625 C9.35122391 14.38644363 9.34697906 15.35882477 9.34260559 16.360672 C9.32580315 19.46859341 9.28814779 22.57586809 9.25 25.68359375 C9.2349552 27.78970418 9.22126644 29.89582477 9.20898438 32.00195312 C9.17589444 37.16691613 9.12410109 42.33139526 9.0625 47.49609375 C9.64741211 47.4803833 10.23232422 47.46467285 10.83496094 47.44848633 C13.49404164 47.38599108 16.15296764 47.34705806 18.8125 47.30859375 C19.73289062 47.28345703 20.65328125 47.25832031 21.6015625 47.23242188 C22.49101563 47.22275391 23.38046875 47.21308594 24.296875 47.203125 C25.11381836 47.18741455 25.93076172 47.1717041 26.77246094 47.15551758 C29.63821781 47.5817149 30.99227069 48.49352473 33.0625 50.49609375 C33.57270728 54.57775202 33.37611802 56.02566672 31.0625 59.49609375 C25.64474062 61.30201354 19.79386472 60.68076639 14.125 60.68359375 C12.83658203 60.69583984 11.54816406 60.70808594 10.22070312 60.72070312 C8.98384766 60.72263672 7.74699219 60.72457031 6.47265625 60.7265625 C4.77314819 60.73272583 4.77314819 60.73272583 3.03930664 60.73901367 C0.12470366 60.50116983 -1.52509138 60.10826458 -3.9375 58.49609375 C-5.17784516 56.01540343 -5.07774746 54.33421495 -5.09863281 51.55908203 C-5.10824036 50.53106476 -5.1178479 49.50304749 -5.12774658 48.44387817 C-5.13199646 47.32931244 -5.13624634 46.2147467 -5.140625 45.06640625 C-5.14632507 43.9245285 -5.15202515 42.78265076 -5.15789795 41.60617065 C-5.16735694 39.18683807 -5.17388549 36.76749255 -5.17773438 34.34814453 C-5.18744175 30.64332654 -5.21845816 26.93906273 -5.25 23.234375 C-5.25652966 20.88672205 -5.26178028 18.53906513 -5.265625 16.19140625 C-5.2779718 15.08088898 -5.2903186 13.9703717 -5.30303955 12.82620239 C-5.30003845 11.7918808 -5.29703735 10.7575592 -5.29394531 9.69189453 C-5.29759094 8.78303497 -5.30123657 7.87417542 -5.30499268 6.93777466 C-4.78873793 3.50769447 -3.50297206 0.89693035 0 0 Z " fill="#000000" transform="translate(639.9375,623.50390625)"/>
<path d="M0 0 C2.11348969 1.5559973 2.89824325 2.42708838 3.36076355 5.03117371 C3.35410172 5.80616714 3.34743988 6.58116058 3.34057617 7.37963867 C3.34034958 8.26032516 3.34012299 9.14101166 3.33988953 10.04838562 C3.32440567 10.99534805 3.30892181 11.94231049 3.29296875 12.91796875 C3.28872391 13.89034988 3.28447906 14.86273102 3.28010559 15.86457825 C3.26330315 18.97249966 3.22564779 22.07977434 3.1875 25.1875 C3.1724552 27.29361043 3.15876644 29.39973102 3.14648438 31.50585938 C3.11339444 36.67082238 3.06160109 41.83530151 3 47 C3.62044189 46.98428955 4.24088379 46.9685791 4.88012695 46.95239258 C7.69082528 46.89003786 10.50137812 46.85100852 13.3125 46.8125 C14.28896484 46.78736328 15.26542969 46.76222656 16.27148438 46.73632812 C17.20927734 46.72666016 18.14707031 46.71699219 19.11328125 46.70703125 C19.97735596 46.6913208 20.84143066 46.67561035 21.73168945 46.65942383 C24 47 24 47 25.78588867 48.33081055 C27.64698658 50.88949271 27.31993822 52.92859306 27 56 C25 59 25 59 22 60 C17.54588002 60.26196036 13.0859893 60.23145119 8.625 60.25 C7.39265625 60.270625 6.1603125 60.29125 4.890625 60.3125 C3.10785156 60.32023438 3.10785156 60.32023438 1.2890625 60.328125 C-0.33974854 60.34214355 -0.33974854 60.34214355 -2.00146484 60.35644531 C-5.49454081 59.94121238 -7.21754129 59.13721896 -10 57 C-10.62145996 54.609375 -10.62145996 54.609375 -10.61523438 51.75 C-10.62453979 50.67878906 -10.63384521 49.60757813 -10.64343262 48.50390625 C-10.62703735 47.34761719 -10.61064209 46.19132813 -10.59375 45 C-10.59379028 43.81277344 -10.59383057 42.62554688 -10.59387207 41.40234375 C-10.58850715 38.8905712 -10.57088343 36.37879962 -10.54199219 33.8671875 C-10.50016402 30.01510507 -10.50091938 26.16477099 -10.5078125 22.3125 C-10.49731979 19.87498781 -10.48438126 17.43748466 -10.46875 15 C-10.46854858 13.84371094 -10.46834717 12.68742188 -10.46813965 11.49609375 C-10.45222778 10.42488281 -10.43631592 9.35367188 -10.41992188 8.25 C-10.41150269 7.30640625 -10.4030835 6.3628125 -10.39440918 5.390625 C-10 3 -10 3 -8.69250488 1.1953125 C-5.85862701 -0.80608181 -3.34037342 -0.35789715 0 0 Z " fill="#000000" transform="translate(694,624)"/>
<path d="M0 0 C1.41326065 -0.01268921 1.41326065 -0.01268921 2.85507202 -0.02563477 C4.40274765 -0.01652573 4.40274765 -0.01652573 5.98168945 -0.00723267 C7.61371811 -0.0151181 7.61371811 -0.0151181 9.27871704 -0.02316284 C12.88427987 -0.03639397 16.48940318 -0.02761345 20.0949707 -0.01748657 C22.59456467 -0.0195064 25.09415806 -0.02241708 27.59375 -0.02618408 C32.83606472 -0.03061166 38.07826458 -0.02444735 43.32055664 -0.01016235 C49.38218819 0.00616451 55.44351704 0.00087607 61.50514126 -0.01564157 C67.33521934 -0.03089266 73.16518231 -0.02928258 78.99526978 -0.02049637 C81.47685793 -0.01849109 83.95845378 -0.02096507 86.44003296 -0.02793503 C89.9046493 -0.0355298 93.36867942 -0.02397237 96.83325195 -0.00723267 C97.86503571 -0.01330536 98.89681946 -0.01937805 99.95986938 -0.02563477 C100.90204315 -0.01717529 101.84421692 -0.00871582 102.81494141 0 C104.04383842 0.00169662 104.04383842 0.00169662 105.29756165 0.00342751 C107.9348152 0.47530803 108.84922309 1.22477184 110.4074707 3.38095093 C110.2824707 6.44345093 110.2824707 6.44345093 109.4074707 9.38095093 C106.23827219 11.49374994 105.47627767 11.63248562 101.85290527 11.64164734 C100.45226585 11.65227455 100.45226585 11.65227455 99.02333069 11.66311646 C98.00089767 11.66063904 96.97846466 11.65816162 95.92504883 11.65560913 C94.84678329 11.66072006 93.76851776 11.66583099 92.65757751 11.6710968 C89.08456918 11.68502517 85.511753 11.68403373 81.9387207 11.68173218 C79.46154712 11.68561699 76.9843742 11.6899512 74.50720215 11.69471741 C69.31198976 11.70218637 64.11684533 11.70188318 58.92163086 11.69662476 C53.57878401 11.69124953 48.2361265 11.69830546 42.89331055 11.71713257 C36.45132971 11.73954523 30.00950731 11.74739199 23.56748962 11.7434597 C21.108225 11.74397435 18.64895674 11.74923891 16.18971252 11.75927162 C12.75625386 11.7715602 9.323342 11.76488995 5.88989258 11.75326538 C4.86745956 11.76090912 3.84502655 11.76855286 2.79161072 11.77642822 C1.8578511 11.76941391 0.92409149 11.7623996 -0.03796387 11.75517273 C-0.8498542 11.75534047 -1.66174454 11.75550821 -2.49823761 11.75568104 C-5.11554712 11.28736772 -6.00155165 10.47805576 -7.5925293 8.38095093 C-7.9675293 5.88095093 -7.9675293 5.88095093 -7.5925293 3.38095093 C-5.31860212 0.3786558 -3.69087603 0.00509562 0 0 Z " fill="#000000" transform="translate(535.592529296875,730.6190490722656)"/>
<path d="M0 0 C1.11439453 0.00322266 2.22878906 0.00644531 3.37695312 0.00976562 C4.48748047 -0.00634766 5.59800781 -0.02246094 6.7421875 -0.0390625 C8.33836914 -0.0400293 8.33836914 -0.0400293 9.96679688 -0.04101562 C11.43234009 -0.04548706 11.43234009 -0.04548706 12.92749023 -0.05004883 C15.43945312 0.32226562 15.43945312 0.32226562 17.25805664 1.6887207 C18.94673074 4.02369041 18.86133929 5.50969119 18.43945312 8.32226562 C16.76627889 10.59482652 15.86115556 11.2509258 13.05102539 11.72631836 C10.03376036 11.75820665 7.01939347 11.78006645 4.00195312 11.75976562 C2.42704102 11.78973633 2.42704102 11.78973633 0.8203125 11.8203125 C-0.6965918 11.8193457 -0.6965918 11.8193457 -2.24414062 11.81835938 C-3.6294397 11.82113892 -3.6294397 11.82113892 -5.04272461 11.82397461 C-8.31489799 11.17195131 -9.53547986 9.92456163 -11.56054688 7.32226562 C-11.18744713 -0.512829 -6.5033766 0.04338214 0 0 Z " fill="#000000" transform="translate(717.560546875,730.677734375)"/>
<path d="M0 0 C0.86383301 -0.00365067 1.72766602 -0.00730133 2.61767578 -0.01106262 C5.47114764 -0.01916436 8.32405102 -0.00556223 11.17749023 0.0090332 C13.1599884 0.00955181 15.14248708 0.00903409 17.12498474 0.00752258 C21.27855105 0.00761229 25.43192319 0.01803887 29.58544922 0.03613281 C34.91436939 0.05883463 40.24300617 0.05936119 45.5719614 0.05261517 C49.66483589 0.049277 53.75764554 0.05590217 57.85050774 0.0657444 C59.81574095 0.0695982 61.78098137 0.07074387 63.74621773 0.06915855 C66.48980633 0.0687885 69.23302879 0.08139094 71.9765625 0.09765625 C72.79170822 0.09517883 73.60685394 0.09270142 74.44670105 0.09014893 C78.29654882 0.1266523 80.14454659 0.18628952 83.42358398 2.37231445 C84.29858398 4.18481445 84.29858398 4.18481445 84.42358398 6.37231445 C83.47180176 8.97058105 83.47180176 8.97058105 81.42358398 11.37231445 C78.35916511 11.87409814 75.84510416 12.036257 72.77709961 11.98754883 C71.89390549 11.99309784 71.01071136 11.99864685 70.10075378 12.00436401 C67.17656477 12.0161907 64.25391499 11.99185485 61.32983398 11.96606445 C59.3010668 11.96435411 57.27229741 11.96441826 55.24353027 11.96618652 C50.98969407 11.96453157 46.73638378 11.94580104 42.48266602 11.91430664 C37.02469372 11.87462857 31.56741074 11.87026027 26.10932159 11.87776947 C21.91947085 11.88083617 17.72977567 11.86872934 13.53996277 11.85163879 C11.52728755 11.84459767 9.5145947 11.8414856 7.50190735 11.84233093 C4.69096905 11.8405371 1.88086311 11.81919093 -0.92993164 11.79223633 C-1.76534988 11.79516693 -2.60076813 11.79809753 -3.46150208 11.80111694 C-9.14592817 11.71683342 -9.14592817 11.71683342 -11.28627777 10.00391388 C-12.57641602 8.37231445 -12.57641602 8.37231445 -13.01391602 5.87231445 C-12.57641602 3.37231445 -12.57641602 3.37231445 -11.08509827 1.73933411 C-7.47255872 -0.22919441 -4.01025006 -0.0376983 0 0 Z " fill="#000000" transform="translate(540.576416015625,776.627685546875)"/>
<path d="M0 0 C1.00224609 -0.01611328 2.00449219 -0.03222656 3.03710938 -0.04882812 C4.48633789 -0.04979492 4.48633789 -0.04979492 5.96484375 -0.05078125 C6.84648193 -0.05376221 7.72812012 -0.05674316 8.63647461 -0.05981445 C11.51329416 0.38168196 12.90059813 1.41302734 15.0625 3.3125 C14.80688677 5.6556213 14.46979228 7.99093403 14.0625 10.3125 C9.95065087 12.36842456 4.64415712 11.54159008 0.125 11.5625 C-1.54079102 11.5934375 -1.54079102 11.5934375 -3.24023438 11.625 C-4.30435547 11.63015625 -5.36847656 11.6353125 -6.46484375 11.640625 C-7.93038696 11.65464355 -7.93038696 11.65464355 -9.42553711 11.66894531 C-11.9375 11.3125 -11.9375 11.3125 -13.78735352 9.98339844 C-14.9375 8.3125 -14.9375 8.3125 -14.8125 5.25 C-12.76917595 -1.60973073 -5.89028016 -0.01886701 0 0 Z " fill="#000000" transform="translate(720.9375,776.6875)"/>
<path d="M0 0 C0.67690887 -0.00686325 1.35381775 -0.0137265 2.05123901 -0.02079773 C4.28307215 -0.03906114 6.51420211 -0.03522966 8.74609375 -0.02954102 C10.30021391 -0.03410269 11.85433206 -0.03940822 13.40844727 -0.04542542 C16.66333214 -0.05435528 19.91797164 -0.0519345 23.17285156 -0.04199219 C27.34279237 -0.0304955 31.51188725 -0.05072444 35.68171692 -0.07990932 C38.89023206 -0.0982588 42.09854394 -0.09798156 45.30709839 -0.0922718 C46.84448433 -0.09211847 48.38188395 -0.09817277 49.91921997 -0.11056328 C52.06908208 -0.125451 54.21737437 -0.11481573 56.3671875 -0.09765625 C57.58978271 -0.09749008 58.81237793 -0.09732391 60.07202148 -0.09715271 C63.76504205 0.49771119 64.99064953 1.41783273 67.18359375 4.40405273 C67.0220917 7.79559569 66.60062618 8.98702031 64.18359375 11.40405273 C58.56826225 12.83133462 52.75804119 12.54812555 47.00390625 12.53686523 C45.37556351 12.53830032 45.37556351 12.53830032 43.71432495 12.5397644 C41.41632021 12.54044393 39.11831354 12.53860552 36.8203125 12.53442383 C33.35542307 12.52912436 29.89066638 12.53434954 26.42578125 12.54077148 C16.84142453 12.54543003 7.25116839 12.53989654 -2.32421875 12.08374023 C-3.55027832 12.02686035 -4.77633789 11.96998047 -6.03955078 11.91137695 C-6.95591309 11.74395996 -7.87227539 11.57654297 -8.81640625 11.40405273 C-10.96402809 8.18261998 -11.37747425 7.14450604 -10.81640625 3.40405273 C-7.49230657 0.01006593 -4.61333011 0.02038758 0 0 Z " fill="#000000" transform="translate(538.81640625,822.595947265625)"/>
<path d="M0 0 C0.99773438 -0.00708984 1.99546875 -0.01417969 3.0234375 -0.02148438 C11.12692662 0.04912243 11.12692662 0.04912243 15 3.4375 C14.75 6.8125 14.75 6.8125 14 10.4375 C10.38257343 13.37310795 5.53987986 12.73029367 1.125 12.6875 C-0.06029297 12.69910156 -0.06029297 12.69910156 -1.26953125 12.7109375 C-5.90511318 12.69551127 -9.64037661 12.20377829 -14 10.4375 C-14.75 7.6875 -14.75 7.6875 -15 4.4375 C-11.64266415 -1.19513875 -5.80662041 -0.11628245 0 0 Z " fill="#000000" transform="translate(721,822.5625)"/>
<path d="M0 0 C0.88554013 -0.00322445 1.77108025 -0.00644889 2.68345493 -0.00977105 C3.66747872 -0.00822245 4.6515025 -0.00667385 5.66534519 -0.00507832 C6.70201078 -0.00734387 7.73867638 -0.00960943 8.80675608 -0.01194364 C12.30915512 -0.01831553 15.81151579 -0.01745224 19.31392002 -0.01662922 C21.81325424 -0.01961872 24.31258799 -0.02302075 26.81192112 -0.02680683 C32.91321661 -0.03474979 39.01449679 -0.0378624 45.11579602 -0.03841921 C50.07285095 -0.03889361 55.02990268 -0.04094451 59.9869566 -0.04411983 C74.02665096 -0.05293079 88.06633766 -0.05753852 102.10603481 -0.05678936 C103.24244385 -0.05672943 103.24244385 -0.05672943 104.40181065 -0.05666828 C105.16033668 -0.0566274 105.91886271 -0.05658652 106.70037437 -0.0565444 C118.99830614 -0.0561378 131.2962073 -0.06570977 143.59413021 -0.07980665 C156.20737213 -0.09415143 168.82059911 -0.10107788 181.43384939 -0.10021287 C188.5209352 -0.09988024 195.60798893 -0.10265595 202.69506741 -0.11339092 C209.35734062 -0.12341738 216.01955745 -0.12318004 222.68183804 -0.11587429 C225.13369947 -0.11482322 227.58556504 -0.11722197 230.03741932 -0.12323475 C233.37140257 -0.13088426 236.70514685 -0.12635694 240.03912449 -0.11860371 C241.02091755 -0.12374727 242.00271062 -0.12889083 243.01425499 -0.13419026 C243.90240286 -0.12959147 244.79055074 -0.12499267 245.70561218 -0.12025452 C246.47590238 -0.12047188 247.24619258 -0.12068925 248.0398249 -0.12091321 C249.91572666 0.12863445 249.91572666 0.12863445 251.91572666 2.12863445 C252.22822666 5.62863445 252.22822666 5.62863445 251.91572666 9.12863445 C248.80548288 11.20213031 248.14331134 11.37910552 244.61938572 11.38311005 C243.73744699 11.38894224 242.85550825 11.39477443 241.9468441 11.40078336 C240.97711001 11.39700404 240.00737593 11.39322471 239.00825596 11.38933086 C237.97875419 11.39315641 236.94925241 11.39698196 235.88855362 11.40092343 C232.42229966 11.41128183 228.95621047 11.40725589 225.48994541 11.40329266 C223.01164184 11.40763752 220.53333962 11.41281991 218.05503941 11.41878033 C212.01248838 11.43080928 205.97000266 11.43331893 199.92744565 11.43098006 C195.01764032 11.42919883 190.10784849 11.43094235 185.19804478 11.43520451 C184.15086719 11.43609729 184.15086719 11.43609729 183.08253449 11.43700811 C181.66443229 11.43821983 180.24633008 11.43943396 178.82822788 11.44065049 C165.52280094 11.45153242 152.21739934 11.44936031 138.91197097 11.44326564 C126.73122064 11.43809464 114.55055023 11.44935557 102.36981571 11.46836386 C89.8706315 11.48772001 77.37148515 11.49600226 64.87228584 11.49224061 C57.85169501 11.49032533 50.83117224 11.49284781 43.81059361 11.50695515 C37.21146508 11.52008114 30.61247064 11.51763926 24.01333332 11.50454426 C21.58607906 11.50216756 19.15881367 11.50495195 16.73157215 11.51316738 C13.42859103 11.52354412 10.12615806 11.51560738 6.82319736 11.50285625 C5.85346328 11.51023054 4.88372919 11.51760482 3.88460922 11.52520257 C2.56170112 11.51439276 2.56170112 11.51439276 1.2120676 11.50336456 C0.4493168 11.50341958 -0.31343401 11.50347459 -1.09929848 11.50353128 C-3.66581284 11.01880066 -4.57576168 10.24172535 -6.08427334 8.12863445 C-5.52402632 0.00505275 -5.52402632 0.00505275 0 0 Z " fill="#000000" transform="translate(510.08427333831787,871.8713655471802)"/>
<path d="M0 0 C2.5625 0.1875 2.5625 0.1875 4.5625 2.1875 C4.69011719 2.84878906 4.81773437 3.51007812 4.94921875 4.19140625 C5.36829098 6.32287612 5.36829098 6.32287612 7.26953125 7.27734375 C7.96433594 7.55707031 8.65914062 7.83679688 9.375 8.125 C13.16777448 9.86817822 15.3997613 11.49282138 17.5625 15.1875 C17.9375 17.875 17.9375 17.875 17.5625 20.1875 C15.5625 22.1875 15.5625 22.1875 12.75 22.5625 C9.5625 22.1875 9.5625 22.1875 7.25 20.1875 C3.83910754 17.64916143 1.68487947 17.78208186 -2.44921875 17.8515625 C-4.66467438 18.02839259 -4.66467438 18.02839259 -6.4375 20.1875 C-6.60437448 22.77104218 -6.60437448 22.77104218 -6.4375 25.1875 C-5.90382813 25.35765625 -5.37015625 25.5278125 -4.8203125 25.703125 C13.3040115 31.59823384 13.3040115 31.59823384 17.5625 37.1875 C19.5015022 41.15364086 20.00727665 44.69602551 19.296875 49.09375 C17.82872271 53.27954588 14.91672846 56.36720995 11.5625 59.1875 C9.56629834 59.86545528 7.56711299 60.53483531 5.5625 61.1875 C4.11089062 64.20529872 4.11089062 64.20529872 3.5625 67.1875 C1.25 67.875 1.25 67.875 -1.4375 68.1875 C-3.1875 67 -3.1875 67 -4.4375 65.1875 C-4.55222656 64.5171875 -4.66695312 63.846875 -4.78515625 63.15625 C-5.00042969 62.5065625 -5.21570313 61.856875 -5.4375 61.1875 C-7.38225447 60.49529926 -9.3289619 59.8076263 -11.2890625 59.16015625 C-15.01139935 57.47495284 -17.44984348 54.72024889 -19.4375 51.1875 C-19.5 48.375 -19.5 48.375 -18.4375 46.1875 C-15.4375 44.1875 -15.4375 44.1875 -12.5 44.3125 C-9.03568467 45.30230438 -7.77388147 46.51734975 -5.4375 49.1875 C-2.41881566 50.69684217 0.23547229 50.36260672 3.5625 50.1875 C4.5525 49.5275 5.5425 48.8675 6.5625 48.1875 C7.14600505 45.73040625 7.14600505 45.73040625 6.5625 43.1875 C3.58726323 40.42877107 0.60382601 39.43055479 -3.25 38.3125 C-8.86530785 36.51614999 -14.35340601 34.58119359 -17.59375 29.3046875 C-19.06071495 25.62369211 -18.98558767 22.07824584 -18.4375 18.1875 C-16.2092012 13.81343199 -13.53402843 10.88521384 -9.4375 8.1875 C-6.625 7.4375 -6.625 7.4375 -4.4375 7.1875 C-4.293125 6.218125 -4.14875 5.24875 -4 4.25 C-3.26552548 0.25119427 -3.26552548 0.25119427 0 0 Z " fill="#000000" transform="translate(715.4375,900.8125)"/>
</svg>
